<svg width="11" height="12" viewBox="0 0 11 12" fill="none" xmlns="http://www.w3.org/2000/svg">
<path fill-rule="evenodd" clip-rule="evenodd" d="M4.77646 0.775511L4.77646 9.44489L1.23023 5.65381C1.0982 5.50553 0.915117 5.42161 0.723668 5.42161C0.532219 5.42161 0.349136 5.50553 0.217105 5.65381C0.0784664 5.79503 0 5.99085 0 6.19561C0 6.40038 0.0784664 6.59619 0.217105 6.73741L4.92111 11.7674C5.25257 12.0775 5.74743 12.0775 6.07889 11.7674L10.7829 6.7362C10.9215 6.59499 11 6.39917 11 6.1944C11 5.98964 10.9215 5.79382 10.7829 5.6526V5.6526C10.6509 5.50432 10.4678 5.4204 10.2763 5.4204C10.0849 5.4204 9.9018 5.50432 9.76977 5.6526L6.22411 9.44489L6.22411 0.775511C6.23595 0.566563 6.1635 0.362202 6.02511 0.214184C5.88671 0.0661621 5.69564 -0.0113277 5.50028 0.00134087C5.30492 -0.0113277 5.11385 0.0661621 4.97546 0.214181C4.83706 0.362202 4.76462 0.56656 4.77646 0.775511Z" fill="#E2E2E2"/>
</svg>
