<svg width="95" height="34" viewBox="0 0 95 34" fill="none" xmlns="http://www.w3.org/2000/svg">
<path d="M88.0402 0C89.7647 0 91.2282 0.619653 92.4308 1.85896C93.6561 3.09826 94.2688 4.59002 94.2688 6.33423C94.2688 8.07844 93.6561 9.5702 92.4308 10.8095C91.2282 12.0259 89.7761 12.634 88.0743 12.634C86.3498 12.634 84.8749 12.0259 83.6496 10.8095C82.447 9.5702 81.8457 8.07844 81.8457 6.33423C81.8457 4.59002 82.447 3.09826 83.6496 1.85896C84.8749 0.619653 86.3384 0 88.0402 0ZM88.0402 0.99833C86.6107 0.99833 85.3741 1.52618 84.3303 2.58189C83.3092 3.61464 82.7987 4.86542 82.7987 6.33423C82.7987 7.80304 83.3092 9.0653 84.3303 10.121C85.3741 11.1538 86.6221 11.6701 88.0743 11.6701C89.5038 11.6701 90.7291 11.1538 91.7501 10.121C92.7939 9.0653 93.3158 7.80304 93.3158 6.33423C93.3158 4.86542 92.7939 3.61464 91.7501 2.58189C90.7291 1.52618 89.4924 0.99833 88.0402 0.99833ZM85.6237 3.02941H87.9722C89.9235 3.02941 90.8992 3.66054 90.8992 4.9228C90.8992 5.68015 90.5021 6.20801 89.708 6.50636C90.4341 6.82766 90.7971 7.51616 90.7971 8.57187C90.7971 8.91612 90.8652 9.22595 91.0013 9.50135H89.7761C89.6626 9.27185 89.6059 9.03087 89.6059 8.77842C89.6059 7.99812 89.4811 7.50469 89.2315 7.29814C89.0046 7.09159 88.494 6.98831 87.6999 6.98831H86.7809V9.50135H85.6237V3.02941ZM86.7809 6.0244H87.9381C89.118 6.0244 89.708 5.68015 89.708 4.99165C89.708 4.76215 89.6513 4.57855 89.5378 4.44084C89.447 4.28019 89.2882 4.17692 89.0613 4.13102C88.8571 4.06217 88.6756 4.02774 88.5167 4.02774C88.3806 4.00479 88.1764 3.99332 87.9041 3.99332H86.7809V6.0244Z" fill="#F4F4F4"/>
<path d="M13.1472 1.84322L22.6075 25.8511H19.0344L16.346 18.5004H6.17112L3.4147 25.8511H0.0117188L9.54008 1.84322H13.1472ZM15.3932 15.9715L11.2756 4.87793L7.08993 15.9715H15.3932ZM25.0726 1.84322H29.4966L37.2894 22.1758L44.81 1.84322H49.2679V25.8511H46.2393V5.82206L38.6506 25.8511H35.8602L28.1353 5.82206V25.8511H25.0726V1.84322ZM76.1206 25.9186L74.4531 27.908L70.7779 24.9745C69.0991 25.9411 67.1254 26.4244 64.8567 26.4244C61.2269 26.4244 58.3911 25.2105 56.3493 22.7827C54.3302 20.355 53.3206 17.2865 53.3206 13.5774C53.3206 9.86834 54.3755 6.90107 56.4854 4.67561C58.5952 2.42768 61.4084 1.30371 64.9248 1.30371C68.5093 1.30371 71.3337 2.41644 73.3982 4.6419C75.4854 6.84487 76.529 9.87958 76.529 13.746C76.529 17.9047 75.3266 21.1192 72.9218 23.3897L76.1206 25.9186ZM67.3409 18.9725L70.5397 21.5688C72.4 19.7255 73.3302 17.1404 73.3302 13.8135C73.3302 10.8687 72.5702 8.50834 71.0502 6.73247C69.5302 4.93413 67.5111 4.03495 64.9929 4.03495C62.2931 4.03495 60.206 4.96785 58.7314 6.83363C57.2567 8.67694 56.5194 10.9698 56.5194 13.7123C56.5194 16.5672 57.234 18.95 58.6633 20.8607C60.1152 22.7715 62.2478 23.7269 65.0609 23.7269C66.354 23.7269 67.4543 23.5021 68.3618 23.0525L65.6394 20.9282L67.3409 18.9725Z" fill="#F4F4F4"/>
</svg>
